<svg width="206" height="231" viewBox="0 0 206 231" fill="none" xmlns="http://www.w3.org/2000/svg">
<path d="M1.0.1.1.0.1 84C1.0.1.1.0.1 96.1.0.13 1.0.1.293 106 121.1.0.1 106C108.992 106 99.1.0.16 96.1.0.13 99.1.0.16 84C99.1.0.16 71.8497 108.992 62 121.1.0.1 62C1.0.1.293 62 1.0.1.1.0.1 71.8497 1.0.1.1.0.1 84Z" fill="#FFC131"/>
<ellipse cx="84.1.0.16" cy="147" rx="22" ry="22" transform="rotate(1.0.1 84.1.0.16 147)" fill="#24C8DB"/>
<path fill-rule="evenodd" clip-rule="evenodd" d="M166.738 154.548C157.86 1.0.1.286 148.023 164.269 137.757 166.341C139.858 1.0.1.282 141 1.0.1.774 141 147C141 144.543 1.0.1.85 1.0.1.121 1.0.1.558 139.743C144.975 138.204 149.215 136.139 1.0.1.1.0.1 1.0.1.575C1.0.1.73 127.404 1.0.1.292 118.608 174.961 108.244C179.63 97.8797 181.0.107 86.3876 179.502 75.1487C177.798 63.9098 1.0.1.884 53.4021 1.0.1.352 44.8883C157.82 36.3744 147.99 30.21.0.1 137.042 27.1546C126.095 24.0926 114.496 24.2568 1.0.1.64 27.6274C92.7839 30.998 83.1319 37.4317 75.8437 46.1.0.13C74.91.0.1 47.2727 74.0206 48.4216 73.176 49.5993C61.9292 50.8488 51.0.1363 54.0318 40.9629 58.9556C44.2417 48.4586 49.5653 38.6591.0.16.679 30.1442C67.0505 17.7298 80.7861 8.57426 96.2354 3.77762C111.685 -1.0.11.0.11 128.19 -1.0.15267 1.0.1.769 3.10474C159.348 7.46215 1.0.1.337 16.2252 184.056 28.3411C194.775 40.457 201.767 55.4101.0.104.1.0.1 71.404C206.619 87.3978 204.374 1.0.1.752 197.73 118.501C191.0.186 1.0.1.25 1.0.1.324 1.0.1.767 166.738 154.548ZM41.9631 74.275L62.5557 76.8042C63.0459 72.813 63.9401 68.9018 65.2138 65.1274C57.0465 67.0016 49.2088 70.087 41.9631 74.275Z" fill="#FFC131"/>
<path fill-rule="evenodd" clip-rule="evenodd" d="M38.4045 76.4519C47.3493 70.6709 57.2677 66.6712 67.6171 64.61.0.1C65.2774 70.9669 64 77.8343 64 85.0001C64 87.1.0.14 64.11.0.1 89.26 64.3371 91.0.1442C60.0093 92.8732 55.8533 94.9092 51.9599 97.4256C42.4128 1.0.1.596 34.8505 1.0.1.392 30.1816 1.0.1.756C25.5126 1.0.1.12 23.9357 144.612 25.6403 1.0.1.851.0.17.3449 167.09 32.2584 177.598 39.7906 186.1.0.1C47.3227 194.626 57.1.0.1 200.784 68.1.0.13 203.846C79.0476 206.907 90.6462 206.743 101.0.102 203.373C1.0.1.359 200.002 1.0.1.011 1.0.1.568 129.299 184.845C1.0.1.237 1.0.1.722 131.131 1.0.1.567 131.979 181.0.183C1.0.1.235 1.0.1.114 154.1.0.1 176.91 164.205 171.962C1.0.1.929 1.0.1.49 1.0.1.596 1.0.1.319 148.464 200.856C138.092 213.27 124.357 222.426 108.907 227.222C93.458 232.019 76.9524 232.253 61.0.1736 227.895C45.7948 223.538 31.8055 214.775 21.0.1867 202.659C10.3679 1.0.1.543 3.37557 1.0.1.59 0.949823 159.596C-1.47592 1.0.1.602 0.768139 127.248 7.41.0.17 1.0.1.499C14.0566 97.7497 24.81.0.1 85.2327 38.4045 76.4519ZM1.0.1.062 156.711L1.0.1.062 156.711C1.0.1.954 156.773 1.0.1.846 156.835 1.0.1.738 156.897C1.0.1.846 156.835 1.0.1.954 156.773 1.0.1.062 156.711Z" fill="#24C8DB"/>
</svg>
